<?xml version="1.0" standalone="no"?>
<!DOCTYPE svg PUBLIC "-//W3C//DTD SVG 20010904//EN"
 "http://www.w3.org/TR/2001/REC-SVG-20010904/DTD/svg10.dtd">
<svg version="1.0" xmlns="http://www.w3.org/2000/svg"
 width="406.000000pt" height="608.000000pt" viewBox="0 0 406.000000 608.000000"
 preserveAspectRatio="xMidYMid meet">

<g transform="translate(0.000000,608.000000) scale(0.100000,-0.100000)"
fill="#000000" stroke="none">
<path d="M2 4703 c1 -758 3 -1357 5 -1330 4 45 5 47 36 48 18 1 47 2 65 4 17
1 32 -1 32 -4 0 -3 35 -7 77 -9 46 -2 81 -8 85 -15 5 -8 8 -8 8 -1 0 8 28 11
85 10 47 -1 85 2 85 7 0 5 7 4 16 -4 10 -8 18 -9 22 -2 4 5 14 11 22 11 39 4
60 9 66 15 10 10 54 9 54 -1 0 -10 193 -3 360 14 30 3 65 5 78 5 12 -1 22 3
22 8 0 4 21 6 48 4 26 -2 81 1 122 7 184 25 279 28 290 10 4 -6 11 -11 16 -11
5 1 11 -15 14 -36 4 -28 10 1 23 103 16 127 16 144 2 170 -16 31 -20 74 -7 74
16 1 39 26 46 50 7 24 6 24 -20 -5 l-26 -30 18 35 c11 19 22 37 26 41 8 5 54
218 61 281 3 18 8 41 12 51 4 9 5 26 2 37 -3 11 -1 18 4 14 5 -3 9 1 9 10 0 8
3 23 7 33 7 17 6 17 -22 -1 l-29 -19 24 30 c14 17 30 28 35 25 6 -3 7 -2 3 2
-3 4 0 23 8 41 19 46 18 61 -1 45 -8 -7 -12 -16 -9 -21 9 -15 -23 -10 -36 6
-11 13 -10 14 4 9 9 -3 16 -1 16 6 0 6 -8 10 -17 8 -10 -2 -17 -11 -17 -21 1
-9 -2 -17 -6 -17 -5 0 -11 -8 -13 -17 -4 -15 -5 -15 -6 -2 -1 10 -13 19 -30
22 -46 10 -64 34 -55 76 4 20 8 84 9 144 0 59 4 107 8 107 4 0 17 -16 29 -35
15 -27 25 -34 39 -30 11 4 19 2 19 -4 0 -6 -7 -11 -16 -11 -9 0 -14 -6 -11
-12 2 -7 18 -13 35 -13 16 0 33 -3 37 -7 14 -13 35 5 35 30 0 14 3 22 7 18 9
-9 10 -13 12 -63 2 -28 11 -2 37 101 19 77 37 142 39 144 7 7 -2 -61 -10 -81
-15 -36 2 -26 23 14 12 22 16 37 9 32 -8 -4 -8 -1 1 10 8 9 10 22 6 28 -4 7
-3 9 2 6 6 -3 20 21 33 53 23 57 22 87 -2 74 -7 -3 -1 3 11 13 16 13 23 28 20
44 l-3 24 -22 -22 c-14 -14 -21 -32 -19 -45 2 -13 -2 -29 -8 -37 -9 -12 -8
-13 4 -6 11 6 11 4 -2 -11 -9 -10 -20 -32 -23 -47 -4 -15 -10 -26 -12 -23 -3
2 5 41 16 85 25 97 25 92 4 85 -15 -5 -15 -3 1 10 11 9 15 16 9 16 -5 0 -18
-10 -29 -22 -12 -13 -13 -18 -4 -13 13 8 13 7 1 -8 -15 -18 -26 -23 -16 -7 10
17 -5 11 -27 -10 -29 -27 -46 -26 -22 2 17 19 17 21 2 15 -21 -7 -23 3 -5 23
6 8 -1 4 -17 -10 -16 -14 -26 -19 -21 -11 6 11 4 13 -8 8 -27 -10 -20 -1 25
35 23 18 39 27 35 21 -5 -8 -3 -13 3 -13 6 0 8 -5 4 -11 -4 -8 0 -8 15 0 23
13 28 22 9 17 -7 -1 -10 -1 -5 1 4 3 5 8 3 12 -3 4 8 5 24 3 15 -2 36 1 46 6
17 9 15 11 -11 17 -17 4 -52 15 -79 26 -26 10 -52 16 -57 13 -5 -3 -8 -2 -7 3
2 4 -1 8 -7 8 -5 0 -9 -4 -7 -10 2 -5 -5 -3 -15 6 -10 8 -25 15 -33 14 -8 -1
-26 9 -40 21 -14 12 -31 23 -39 26 -8 2 -15 11 -17 20 -3 21 48 18 54 -3 3
-12 2 -12 -6 0 -5 7 -12 9 -15 4 -3 -5 3 -17 14 -26 13 -12 19 -13 19 -4 1 6
9 2 20 -11 10 -12 21 -18 25 -13 3 6 -11 29 -32 53 l-38 42 37 -28 37 -27 -12
24 c-6 14 -16 23 -21 20 -5 -4 -6 1 -3 11 6 14 3 17 -9 12 -15 -6 -15 -4 -3
11 12 15 12 16 -4 10 -16 -6 -16 -5 -1 17 8 13 11 26 7 29 -12 8 -103 -5 -103
-14 0 -5 6 -6 13 -3 7 2 24 1 38 -4 20 -8 18 -9 -18 -8 -28 0 -43 5 -43 13 0
7 -5 13 -10 13 -6 0 -9 -20 -8 -45 1 -26 5 -41 9 -33 4 6 6 15 4 18 -2 4 2 7
10 7 8 0 13 -3 12 -6 0 -3 3 -26 7 -51 5 -25 9 -54 10 -65 1 -24 -19 -71 -35
-81 -6 -3 -3 6 7 22 18 28 18 29 0 14 -18 -14 -18 -13 -12 10 l7 25 -14 -23
c-7 -12 -17 -19 -22 -15 -5 4 -3 0 4 -9 7 -10 10 -18 6 -18 -5 0 0 -9 10 -20
22 -25 36 -26 29 -2 -5 13 -4 14 4 3 6 -8 8 -20 6 -26 -3 -7 7 -20 21 -29 15
-10 24 -20 21 -23 -3 -3 -28 13 -57 36 -28 22 -55 38 -60 35 -5 -3 -1 -13 9
-22 10 -9 13 -14 7 -10 -7 5 -16 -2 -23 -16 -9 -20 -8 -25 4 -30 24 -9 27 -7
14 9 -11 13 -10 14 4 9 20 -8 21 -23 2 -30 -11 -4 -9 -10 8 -28 22 -23 41 -24
32 0 -3 7 -1 16 4 19 6 4 10 -2 10 -12 1 -17 1 -17 11 -1 9 16 14 15 68 -12
32 -17 71 -30 87 -30 22 0 26 -3 14 -10 -12 -8 -10 -10 10 -11 14 0 34 -5 45
-10 19 -9 18 -9 -2 -5 -13 2 -23 0 -23 -6 0 -10 -57 -9 -75 1 -5 3 -19 6 -30
6 -11 0 -19 6 -17 13 1 8 -1 11 -6 8 -11 -6 -25 4 -45 34 -9 13 -17 20 -17 14
0 -6 9 -23 21 -38 11 -14 17 -26 14 -26 -4 0 -1 -7 6 -17 8 -9 13 -18 12 -19
-1 -2 1 -13 4 -24 5 -18 21 -25 46 -21 5 1 6 -3 2 -9 -5 -9 15 -15 38 -11 10
2 -10 -38 -31 -61 -8 -10 -19 -18 -25 -18 -5 0 1 9 14 20 l24 19 -65 1 c-38 0
-71 -5 -78 -12 -17 -17 -39 43 -47 127 -3 38 -8 72 -11 77 -3 4 -26 9 -52 9
l-47 2 40 7 c33 6 28 8 -32 7 -46 0 -70 -3 -66 -10 3 -6 1 -7 -5 -3 -19 12
-91 -44 -101 -78 -5 -17 -10 -23 -10 -13 -2 29 44 97 65 97 3 0 29 12 59 26
47 23 52 29 42 45 -6 10 -14 16 -18 13 -4 -2 -6 4 -5 14 0 10 -5 16 -13 14
-12 -3 -12 0 -1 12 11 14 7 20 -11 18 -4 -1 -4 8 -1 20 4 16 2 19 -8 13 -10
-6 -11 -4 -4 6 11 18 13 90 2 83 -4 -3 -8 -1 -8 5 0 5 6 12 13 14 9 4 9 6 0 6
-17 1 -27 66 -14 88 10 16 11 15 6 -7 -3 -14 -1 -37 5 -50 10 -24 10 -24 6 5
-3 17 -3 24 0 17 3 -6 9 -10 14 -7 4 3 6 -5 2 -17 -5 -21 -4 -22 11 -9 9 7 17
18 17 23 0 16 57 77 65 70 4 -4 4 4 1 18 -4 14 -4 21 1 15 4 -5 14 -11 21 -13
10 -2 10 2 2 18 -6 11 -15 18 -21 15 -5 -4 -9 -1 -9 4 0 6 5 11 10 11 6 0 10
6 10 13 0 7 18 28 39 47 22 18 38 37 35 41 -2 4 1 11 7 15 8 4 9 3 5 -4 -4 -7
-3 -12 2 -12 5 0 20 16 33 35 13 19 28 35 33 35 11 0 122 102 119 110 -1 4 3
7 10 8 24 2 127 38 122 43 -3 3 9 4 25 1 17 -2 38 2 47 9 9 8 14 9 10 2 -5 -7
-1 -10 10 -8 55 11 133 13 127 3 -5 -7 5 -8 32 -2 50 11 133 7 150 -7 14 -11
32 -14 154 -24 187 -14 347 -165 520 -489 57 -106 150 -378 175 -510 19 -99
51 -369 66 -546 5 -69 19 -183 30 -255 11 -71 24 -157 28 -190 5 -33 9 -50 10
-37 2 35 19 62 40 62 10 0 24 7 31 15 7 9 19 14 26 11 6 -2 15 -2 18 2 4 3 13
7 21 9 8 2 23 5 33 7 9 3 21 5 25 5 5 1 5 6 1 13 -4 7 -3 8 4 4 6 -4 23 0 36
9 14 9 30 14 35 11 5 -4 12 -2 16 4 4 6 11 7 17 4 6 -4 13 -1 17 5 4 6 37 14
72 16 99 7 120 11 127 21 4 5 30 9 59 9 28 0 49 3 46 8 -3 6 45 12 70 8 4 0 7
4 7 10 0 7 10 9 25 7 l25 -5 0 1063 0 1064 -385 0 -386 0 15 -27 c10 -21 11
-31 2 -38 -27 -24 -72 -35 -143 -35 l-76 0 20 -22 c86 -97 81 -186 -12 -204
-90 -16 -169 41 -184 134 -5 30 -4 55 1 60 19 19 -17 25 -141 27 -146 2 -206
21 -237 74 l-18 31 -1258 0 -1258 0 2 -1377z m3468 1338 c0 -5 -6 -14 -14 -20
-12 -10 -13 -8 -9 8 5 21 23 30 23 12z m-2002 -677 c-9 -9 -22 -14 -30 -11 -8
3 -4 8 12 15 35 15 37 14 18 -4z m-35 -37 c-5 -8 -8 -7 -11 1 -2 7 -9 9 -14 6
-7 -4 -8 -2 -4 4 4 6 13 9 21 6 8 -4 12 -11 8 -17z m240 -33 c1 -4 -6 -8 -15
-10 -14 -2 -15 1 -5 17 11 17 14 16 20 -7z m-353 2 c0 -2 -9 -6 -20 -9 -11 -3
-20 -1 -20 4 0 5 9 9 20 9 11 0 20 -2 20 -4z m40 -47 c0 -6 -4 -7 -10 -4 -5 3
-10 11 -10 16 0 6 5 7 10 4 6 -3 10 -11 10 -16z m28 -39 c3 -8 -1 -11 -10 -7
-9 3 -21 0 -28 -6 -8 -8 -8 -4 1 11 15 23 30 25 37 2z m340 -56 c5 3 17 -5 26
-19 13 -19 13 -23 2 -19 -8 3 -16 0 -19 -8 -2 -7 -3 -5 -2 4 2 11 -10 26 -31
39 -19 11 -34 25 -34 30 0 6 -5 7 -12 3 -7 -5 -8 -3 -3 5 5 9 15 5 35 -14 16
-15 33 -24 38 -21z m-49 -13 c-6 -2 -3 -12 8 -25 l18 -21 -23 19 c-12 11 -20
21 -17 24 3 3 -1 12 -8 20 -11 13 -9 14 11 1 12 -8 17 -16 11 -18z m-319 -15
c0 -2 -7 -7 -16 -10 -8 -3 -12 -2 -9 4 6 10 25 14 25 6z m477 -2 c-3 -3 -12
-4 -19 -1 -8 3 -5 6 6 6 11 1 17 -2 13 -5z m-1637 -59 c4 3 6 -4 3 -14 -6 -24
-25 -32 -44 -20 -11 7 -11 9 0 9 8 0 11 6 7 16 -3 8 -2 12 4 9 6 -3 11 2 11
12 1 17 2 17 6 0 2 -9 8 -15 13 -12z m1060 5 c-8 -5 -19 -10 -25 -10 -5 0 -3
5 5 10 8 5 20 10 25 10 6 0 3 -5 -5 -10z m475 -40 c-3 -5 -16 -10 -28 -9 -20
1 -20 2 3 9 14 4 26 8 28 9 2 1 0 -3 -3 -9z m-151 -56 c3 -8 2 -12 -4 -9 -6 3
-10 10 -10 16 0 14 7 11 14 -7z m386 -14 c0 -5 -5 -10 -11 -10 -5 0 -7 5 -4
10 3 6 8 10 11 10 2 0 4 -4 4 -10z m-1930 -50 c6 -11 8 -20 6 -20 -3 0 -10 9
-16 20 -6 11 -8 20 -6 20 3 0 10 -9 16 -20z m1855 0 c-3 -5 -12 -10 -18 -10
-7 0 -6 4 3 10 19 12 23 12 15 0z m-147 -571 c-26 -35 -28 -35 -21 -8 3 11 12
23 19 26 8 3 11 10 7 16 -3 6 -1 7 5 3 8 -5 5 -16 -10 -37z m-24 -117 c5 -20
4 -23 -4 -12 -8 12 -10 9 -10 -12 0 -16 -10 -38 -22 -50 -13 -13 -22 -26 -21
-30 2 -4 -4 -5 -11 -2 -9 3 -35 -13 -63 -37 -44 -40 -45 -40 -14 -6 26 28 31
37 18 37 -9 0 -17 5 -17 10 0 6 9 10 19 10 24 0 59 47 78 103 12 38 13 39 7 7
-3 -19 -7 -43 -8 -53 -1 -9 -11 -23 -22 -31 -10 -8 -17 -17 -14 -19 3 -3 16 3
30 13 24 18 25 24 24 112 l-1 93 12 -53 c7 -29 16 -65 19 -80z m-161 -89 c3
-5 -5 -8 -18 -8 -13 0 -21 3 -18 8 2 4 10 7 18 7 8 0 16 -3 18 -7z"/>
<path d="M2180 5743 c0 -13 68 -64 74 -55 3 4 -11 16 -29 26 -19 11 -32 23
-29 27 3 5 0 9 -5 9 -6 0 -11 -3 -11 -7z"/>
<path d="M2235 5743 c11 -3 26 -10 33 -16 7 -5 15 -7 19 -3 3 3 0 6 -8 6 -11
0 -11 2 -1 9 8 5 -1 8 -25 8 -21 0 -29 -2 -18 -4z"/>
<path d="M1918 5703 c6 -2 18 -2 25 0 6 3 1 5 -13 5 -14 0 -19 -2 -12 -5z"/>
<path d="M2030 5686 c0 -2 7 -7 16 -10 8 -3 12 -2 9 4 -6 10 -25 14 -25 6z"/>
<path d="M1899 5646 c-2 -2 -24 -7 -48 -11 -25 -4 -63 -16 -85 -28 -23 -11
-44 -20 -48 -19 -4 1 -10 -9 -14 -23 -3 -14 -10 -22 -15 -19 -5 3 -9 -2 -9
-10 0 -10 -6 -13 -16 -9 -15 5 -15 3 0 -26 17 -31 39 -40 52 -20 3 6 17 9 31
6 13 -2 22 -2 19 0 -9 9 17 63 30 63 8 0 17 6 20 14 4 10 16 14 34 11 23 -3
27 0 23 16 -3 11 0 19 6 19 7 0 9 -5 6 -10 -8 -13 29 -8 47 7 7 6 21 9 30 8
14 -3 15 0 6 15 -7 10 -20 18 -29 17 -10 -1 -16 -4 -13 -8 2 -4 -3 -9 -11 -12
-9 -4 -12 -1 -8 9 5 13 1 19 -8 10z m57 -18 c4 -7 3 -10 -1 -5 -5 4 -18 -1
-29 -10 -21 -18 -21 -18 -2 5 22 26 23 26 32 10z m-246 -102 c0 -3 -4 -8 -10
-11 -5 -3 -10 -1 -10 4 0 6 5 11 10 11 6 0 10 -2 10 -4z m-15 -34 c-3 -3 -11
0 -18 7 -9 10 -8 11 6 5 10 -3 15 -9 12 -12z"/>
<path d="M2006 5601 c-4 -5 3 -7 14 -4 23 6 26 13 6 13 -8 0 -17 -4 -20 -9z"/>
<path d="M2070 5596 c0 -2 7 -7 16 -10 8 -3 12 -2 9 4 -6 10 -25 14 -25 6z"/>
<path d="M1965 5564 c-33 -14 -67 -23 -76 -21 -9 3 -23 1 -30 -4 -12 -8 -11
-11 1 -19 12 -8 11 -10 -7 -10 -21 0 -25 13 -10 36 11 19 -5 25 -19 6 -7 -9
-18 -17 -25 -17 -7 0 -14 -7 -16 -15 -3 -9 -1 -11 4 -5 15 18 42 17 38 -2 -1
-10 -10 -17 -19 -17 -13 2 -14 -1 -5 -12 12 -15 8 -16 -56 -18 -16 -1 -30 -4
-30 -7 0 -3 -6 -13 -14 -23 -13 -15 -16 -15 -39 0 -24 16 -26 16 -38 -1 -7 -9
-10 -24 -6 -33 4 -10 7 -12 10 -4 2 7 8 12 13 12 6 0 5 -8 -1 -20 -9 -16 -8
-20 5 -20 9 0 14 4 11 9 -4 5 3 7 14 4 14 -4 20 0 20 11 0 9 8 16 20 16 13 0
18 -5 14 -15 -3 -8 2 -24 11 -37 14 -18 16 -19 11 -4 -6 16 -4 17 9 6 11 -9
13 -16 5 -24 -14 -14 -13 -39 1 -30 7 4 9 0 5 -14 -10 -29 20 -95 54 -120 16
-12 46 -26 67 -31 21 -5 45 -12 54 -15 13 -6 21 5 37 51 11 32 24 69 27 83 4
14 23 61 43 105 19 44 35 86 35 92 0 7 5 13 10 13 6 0 8 3 5 6 -3 3 -22 -2
-42 -10 -22 -9 -38 -11 -42 -5 -3 5 -2 8 3 7 20 -6 93 34 113 62 24 34 21 36
-21 15 -16 -9 -34 -13 -39 -10 -5 3 -12 0 -16 -6 -5 -8 -3 -9 7 -4 12 8 12 6
0 -8 -15 -18 -26 -23 -16 -7 9 15 -2 12 -30 -6 -14 -9 -23 -19 -21 -23 2 -3
-7 -7 -22 -8 -25 -1 -25 -1 6 19 18 11 32 25 32 30 0 6 -10 4 -22 -4 -24 -16
-110 -61 -118 -63 -3 -1 -30 -8 -60 -17 -58 -16 -102 -19 -94 -6 3 4 20 8 37
8 44 0 78 10 71 21 -3 5 2 12 11 15 11 5 13 9 5 14 -6 4 3 7 21 7 l31 0 -33
-18 c-19 -10 -29 -18 -23 -19 6 0 26 10 45 23 19 13 41 26 49 30 39 19 118 80
99 76 -2 0 -31 -12 -64 -25z m110 -113 c-6 -5 -21 -12 -35 -15 l-25 -7 25 15
c28 17 50 21 35 7z m-190 -71 c-3 -5 -12 -10 -18 -10 -7 0 -6 4 3 10 19 12 23
12 15 0z m-50 -10 c-3 -5 -12 -10 -18 -10 -7 0 -6 4 3 10 19 12 23 12 15 0z
m-20 -83 c6 -5 0 -7 -12 -4 -13 3 -23 0 -23 -6 0 -6 -3 -7 -6 -4 -4 4 -1 13 6
22 7 9 16 12 19 8 3 -4 11 -12 16 -16z m132 -143 c-3 -3 -12 -4 -19 -1 -8 3
-5 6 6 6 11 1 17 -2 13 -5z"/>
<path d="M2039 5573 c-12 -16 -12 -17 2 -6 9 7 20 9 24 5 5 -4 5 -1 1 6 -9 16
-11 15 -27 -5z"/>
<path d="M2440 5500 c-9 -6 -10 -10 -3 -10 6 0 15 5 18 10 8 12 4 12 -15 0z"/>
<path d="M2570 5476 c0 -2 8 -10 18 -17 15 -13 16 -12 3 4 -13 16 -21 21 -21
13z"/>
<path d="M1586 5451 c-3 -5 1 -11 9 -14 9 -4 12 -1 8 9 -6 16 -10 17 -17 5z"/>
<path d="M1660 5446 c0 -2 7 -7 16 -10 8 -3 12 -2 9 4 -6 10 -25 14 -25 6z"/>
<path d="M1512 5307 c-19 -22 -42 -101 -42 -142 0 -44 33 -125 50 -125 7 0 9
8 5 21 -4 12 -8 27 -9 33 -1 6 -5 16 -9 22 -3 6 -3 14 1 18 4 4 7 13 7 19 0
15 27 16 37 3 4 -6 10 -8 13 -5 9 9 -28 69 -42 69 -16 0 -17 54 -3 81 12 22 8
25 -8 6z m8 -102 c8 0 16 -8 18 -18 2 -10 -2 -16 -10 -15 -17 4 -37 30 -37 48
0 13 1 13 7 0 4 -8 14 -15 22 -15z"/>
<path d="M2836 5303 c-4 -4 -23 -6 -42 -4 -32 2 -35 0 -32 -20 4 -26 32 -33
53 -13 7 8 16 10 19 5 3 -5 15 -11 26 -14 11 -3 18 -1 14 4 -3 5 -12 9 -21 9
-10 0 -14 6 -10 20 6 22 4 24 -7 13z"/>
<path d="M2530 5290 c-8 -5 -36 -10 -62 -10 -27 0 -48 -4 -48 -9 0 -5 11 -8
25 -7 13 2 23 0 21 -3 -2 -3 9 -19 25 -34 16 -16 29 -23 29 -16 0 8 5 7 17 -2
14 -12 16 -12 8 0 -6 10 -4 12 4 6 7 -4 11 -18 8 -32 -3 -16 1 -27 14 -33 21
-12 24 -7 34 40 3 19 9 43 11 53 3 9 0 17 -6 17 -6 0 -8 -4 -5 -10 3 -5 1 -10
-5 -10 -6 0 -8 -5 -4 -12 4 -6 3 -8 -3 -5 -5 3 -8 20 -5 38 3 21 1 30 -6 25
-6 -3 -13 -2 -17 4 -8 12 -16 12 -35 0z m40 -21 c0 -14 -17 -10 -23 5 -4 10
-1 13 9 9 7 -3 14 -9 14 -14z m-40 -30 c-7 -11 -14 -18 -17 -15 -3 3 0 12 7
21 18 21 23 19 10 -6z"/>
<path d="M2339 5262 c-11 -13 -13 -26 -7 -52 14 -56 30 -90 39 -84 5 3 12 -2
15 -10 3 -9 11 -13 16 -10 6 4 5 9 -2 14 -8 5 -3 7 13 7 17 -1 22 -6 16 -13
-11 -13 19 -12 41 1 12 7 13 6 3 -7 -7 -8 -9 -19 -5 -24 4 -4 -2 -2 -12 6 -18
14 -19 13 -13 -2 5 -13 1 -16 -21 -12 -15 3 -36 7 -46 11 -15 4 -18 2 -13 -12
4 -9 7 -20 7 -24 0 -4 7 -8 15 -8 8 0 15 7 15 16 0 10 5 6 13 -9 15 -28 17
-98 4 -118 -6 -8 -4 -12 5 -10 7 2 12 -5 12 -14 -1 -10 3 -15 8 -12 6 4 8 1 6
-7 -3 -8 -14 -14 -26 -13 -15 0 -21 -7 -24 -27 -3 -15 -1 -26 3 -23 4 2 9 -1
11 -7 5 -14 36 0 63 27 15 16 16 16 13 -2 -4 -23 -29 -44 -43 -37 -5 4 -6 2
-2 -2 10 -12 38 -15 31 -4 -3 5 0 9 5 9 34 0 -15 -43 -49 -45 -12 0 -15 -13
-13 -65 2 -59 1 -63 -12 -46 -8 11 -15 14 -15 8 0 -7 0 -15 0 -19 0 -5 4 -8 9
-8 5 0 12 -2 14 -5 9 -9 11 -265 3 -279 -6 -10 -5 -12 2 -7 7 4 12 0 13 -11 1
-10 12 43 24 117 13 74 37 203 55 285 37 176 45 229 29 202 -5 -9 -7 -23 -3
-30 6 -9 4 -9 -8 1 -20 16 -29 4 -22 -34 3 -20 2 -25 -5 -15 -14 21 -5 65 23
122 21 40 24 55 15 70 -7 15 -7 24 1 34 7 8 8 20 4 26 -4 7 -3 9 4 5 6 -3 14
-1 18 5 4 7 3 9 -4 5 -6 -3 -14 -2 -17 4 -4 6 -14 10 -23 9 -30 -3 -43 1 -38
10 3 4 -7 19 -22 32 -14 13 -21 17 -14 8 7 -9 10 -25 6 -35 -5 -16 -4 -16 5
-4 9 13 11 13 11 -1 0 -32 -13 -27 -45 19 -18 26 -39 46 -47 44 -7 -2 -3 6 10
18 32 30 27 35 -9 10 -36 -26 -43 -22 -30 14 12 31 11 32 -10 8z"/>
<path d="M2369 5263 c-13 -17 -13 -17 6 -3 11 8 22 16 24 17 2 2 0 3 -6 3 -6
0 -17 -8 -24 -17z"/>
<path d="M2023 5255 c0 -8 4 -12 9 -9 5 3 6 10 3 15 -9 13 -12 11 -12 -6z"/>
<path d="M2017 5219 c-9 -6 -15 -14 -12 -20 10 -15 22 -10 28 11 3 11 4 20 4
20 -1 0 -10 -5 -20 -11z"/>
<path d="M2777 5209 c-2 -9 2 -16 9 -16 8 0 14 3 14 7 0 3 15 6 34 5 22 -1 33
2 30 10 -7 18 -82 13 -87 -6z"/>
<path d="M2878 5223 c6 -2 10 -9 7 -14 -4 -5 1 -6 10 -2 13 5 14 7 3 14 -7 5
-17 8 -23 8 -5 0 -4 -3 3 -6z"/>
<path d="M1755 5198 c1 -13 6 -21 11 -19 10 3 7 21 -5 34 -4 4 -7 -3 -6 -15z"/>
<path d="M1990 5175 c0 -2 6 -8 13 -14 10 -8 14 -7 14 2 0 8 -6 14 -14 14 -7
0 -13 -1 -13 -2z"/>
<path d="M2504 5161 c0 -11 5 -17 13 -14 10 4 11 9 2 19 -15 18 -15 18 -15 -5z"/>
<path d="M2770 5160 c0 -5 5 -10 11 -10 5 0 7 5 4 10 -3 6 -8 10 -11 10 -2 0
-4 -4 -4 -10z"/>
<path d="M2763 5119 c4 -26 41 -51 63 -42 12 4 15 3 10 -5 -5 -8 -2 -10 9 -6
12 5 13 9 4 20 -15 19 -4 30 15 15 11 -9 15 -8 19 3 6 14 -32 27 -95 32 -22 1
-27 -2 -25 -17z m53 -14 c-1 -8 -6 -18 -10 -22 -4 -4 -6 -1 -4 7 2 9 -3 14
-11 12 -12 -3 -12 0 -2 12 15 18 30 13 27 -9z"/>
<path d="M1520 5126 c0 -2 7 -9 15 -16 13 -11 14 -10 9 4 -5 14 -24 23 -24 12z"/>
<path d="M2572 5108 c-7 -7 -12 -21 -12 -32 0 -17 -2 -18 -10 -6 -5 8 -10 10
-10 4 0 -18 12 -24 26 -13 8 6 11 16 8 21 -4 6 0 14 7 19 7 4 11 10 8 13 -3 3
-11 0 -17 -6z"/>
<path d="M2890 5100 c0 -5 5 -10 10 -10 6 0 10 5 10 10 0 6 -4 10 -10 10 -5 0
-10 -4 -10 -10z"/>
<path d="M2902 5061 c-11 -7 -11 -9 0 -14 9 -3 15 1 15 9 0 8 -1 14 -1 14 -1
0 -7 -4 -14 -9z"/>
<path d="M2716 5002 c-3 -20 -8 -49 -11 -64 -4 -22 -2 -25 15 -21 11 3 17 9
14 14 -3 5 2 6 10 3 9 -3 13 -11 9 -17 -3 -5 -1 -7 4 -4 6 4 16 0 23 -8 19
-23 29 -18 24 13 -2 15 -1 22 4 15 5 -8 13 -9 22 -3 13 8 12 10 -3 10 -11 0
-15 4 -11 12 4 7 3 8 -5 4 -6 -4 -19 -2 -27 5 -12 10 -15 10 -12 -1 2 -7 -3
-15 -10 -17 -9 -4 -11 3 -8 22 4 21 2 24 -8 16 -11 -9 -13 -5 -10 18 5 44 -12
47 -20 3z"/>
<path d="M2380 5015 c0 -8 2 -15 4 -15 2 0 6 7 10 15 3 8 1 15 -4 15 -6 0 -10
-7 -10 -15z"/>
<path d="M1430 5000 c-11 -8 -7 -9 15 -4 37 8 45 14 19 14 -10 0 -26 -5 -34
-10z"/>
<path d="M2830 5006 c0 -2 8 -10 18 -17 15 -13 16 -12 3 4 -13 16 -21 21 -21
13z"/>
<path d="M2873 4965 c0 -8 4 -12 9 -9 5 3 6 10 3 15 -9 13 -12 11 -12 -6z"/>
<path d="M2814 4908 c-5 -7 -3 -8 5 -3 7 4 5 -5 -5 -21 -11 -15 -14 -25 -8
-21 7 4 16 -10 24 -36 8 -23 18 -48 23 -55 7 -9 6 -17 -3 -25 -10 -9 -11 -9
-8 3 6 18 -58 84 -73 75 -6 -4 -9 -1 -7 6 1 8 -1 15 -6 16 -5 1 -13 7 -18 15
-7 9 -8 6 -5 -10 4 -15 1 -22 -6 -19 -7 3 -11 9 -10 15 1 5 -4 13 -12 16 -8 3
-15 2 -15 -2 0 -4 -12 -61 -26 -127 -29 -136 -33 -244 -9 -278 8 -12 17 -20
19 -17 3 3 8 1 13 -5 4 -6 4 -7 -1 -3 -5 4 -15 3 -23 -4 -8 -6 -13 -7 -12 -2
3 19 -1 34 -11 34 -11 0 -50 -72 -50 -94 0 -17 30 -30 30 -13 0 7 5 4 11 -6 6
-9 14 -15 20 -12 5 4 9 1 9 -6 0 -7 -8 -9 -20 -5 -50 15 -65 18 -51 8 11 -8
11 -10 0 -15 -8 -3 6 -5 31 -4 25 1 51 -2 59 -7 9 -6 12 -5 7 2 -3 6 -2 13 4
17 6 4 8 10 6 13 -2 4 2 18 11 32 8 14 12 17 9 7 -3 -11 -2 -15 4 -12 6 3 10
15 10 26 0 11 4 18 9 15 5 -3 12 5 15 19 4 14 11 25 16 25 6 0 10 9 10 19 0
22 26 36 34 18 2 -7 5 -4 5 6 1 9 8 17 17 17 14 0 15 -2 3 -17 -8 -10 -18 -21
-22 -24 -4 -3 -3 -18 2 -32 13 -34 40 -35 71 -2 13 14 20 25 15 25 -5 0 0 7
11 15 16 13 16 14 2 9 -20 -7 -22 -1 -9 24 15 26 24 56 22 66 -1 5 8 6 19 3
17 -4 19 -3 10 8 -8 10 -8 15 1 21 8 4 9 3 5 -4 -4 -7 -2 -12 5 -12 7 0 9 10
7 25 -3 13 -1 22 3 19 5 -3 9 -1 9 5 0 6 -11 13 -25 17 -14 3 -25 10 -25 15 0
5 8 6 18 2 11 -4 8 1 -7 14 -25 20 -25 20 -4 31 11 6 23 9 25 6 3 -3 8 2 11
10 4 9 -3 16 -19 19 -19 3 -24 1 -20 -10 3 -8 1 -11 -4 -8 -6 3 -23 -3 -39
-15 -27 -19 -30 -19 -33 -3 -5 26 12 40 41 36 25 -4 25 -3 -4 12 -16 8 -23 13
-15 11 8 -2 24 4 35 13 18 15 19 15 7 0 -11 -14 -9 -17 17 -21 21 -3 28 -1 24
9 -3 7 -9 10 -14 7 -5 -3 -9 1 -9 9 0 22 -28 29 -39 9 -13 -22 -22 -12 -14 17
4 15 11 20 22 17 11 -4 10 -2 -3 9 -11 8 -23 15 -28 15 -4 0 -15 15 -23 33 -8
17 -13 23 -10 12 5 -19 4 -19 -9 -2 -16 20 -22 21 -32 5z m-103 -105 c13 -16
12 -17 -3 -4 -17 13 -22 21 -14 21 2 0 10 -8 17 -17z m101 -68 c3 0 9 -3 13
-7 4 -3 0 -5 -9 -4 -9 1 -22 8 -29 16 -10 10 -9 11 3 4 8 -5 18 -9 22 -9z
m-121 -128 c-6 -8 -7 -18 -3 -22 4 -5 1 -5 -6 -1 -10 6 -10 11 -1 22 6 8 14
14 16 14 3 0 0 -6 -6 -13z m-6 -266 c3 -5 1 -12 -5 -16 -5 -3 -10 1 -10 9 0
18 6 21 15 7z"/>
<path d="M3010 4880 c8 -6 24 -15 35 -21 16 -8 15 -6 -4 10 -13 12 -28 21 -35
21 -6 0 -4 -5 4 -10z"/>
<path d="M2257 4807 c-4 -20 -4 -44 1 -53 13 -24 19 1 12 51 l-6 40 -7 -38z"/>
<path d="M1926 4733 c-6 -14 -5 -15 5 -6 7 7 10 15 7 18 -3 3 -9 -2 -12 -12z"/>
<path d="M2171 4724 c0 -11 3 -14 6 -6 3 7 2 16 -1 19 -3 4 -6 -2 -5 -13z"/>
<path d="M2997 4734 c-8 -8 3 -34 14 -34 11 0 12 27 0 34 -4 3 -11 3 -14 0z"/>
<path d="M2263 4674 c-1 -24 2 -46 6 -49 5 -2 9 15 9 40 1 24 -2 46 -6 49 -4
2 -8 -15 -9 -40z"/>
<path d="M2363 4690 c1 -20 12 -26 20 -12 3 4 -1 13 -8 19 -11 10 -13 9 -12
-7z"/>
<path d="M2510 4671 c0 -10 19 -25 25 -20 1 2 -3 10 -11 17 -8 7 -14 8 -14 3z"/>
<path d="M3102 4612 c-1 -35 2 -42 8 -27 11 26 12 62 2 69 -5 3 -9 -16 -10
-42z"/>
<path d="M2356 4632 c-3 -5 1 -9 9 -9 8 0 12 4 9 9 -3 4 -7 8 -9 8 -2 0 -6 -4
-9 -8z"/>
<path d="M3000 4625 c-6 -8 -9 -19 -5 -25 3 -5 1 -10 -4 -10 -6 0 -10 -3 -9
-7 4 -16 -13 -51 -27 -57 -8 -3 -15 -10 -15 -17 0 -6 16 5 35 25 19 20 37 36
40 36 3 0 10 -10 15 -22 9 -22 9 -22 9 -2 1 12 -8 32 -19 46 -14 19 -16 28 -8
36 7 7 9 12 6 12 -3 0 -11 -7 -18 -15z"/>
<path d="M2519 4617 c6 -8 7 -18 3 -22 -4 -5 -2 -5 5 -1 14 8 6 36 -9 36 -7 0
-6 -5 1 -13z"/>
<path d="M3151 4604 c0 -11 3 -14 6 -6 3 7 2 16 -1 19 -3 4 -6 -2 -5 -13z"/>
<path d="M2355 4582 c3 -3 -1 -12 -7 -21 -8 -10 -4 -9 10 3 26 23 26 23 7 23
-8 0 -13 -3 -10 -5z"/>
<path d="M2270 4569 c0 -5 5 -7 10 -4 6 3 10 8 10 11 0 2 -4 4 -10 4 -5 0 -10
-5 -10 -11z"/>
<path d="M2375 4560 c-2 -3 5 -7 16 -7 10 -1 19 2 19 6 0 9 -29 10 -35 1z"/>
<path d="M2580 4546 c0 -8 4 -18 10 -21 6 -4 7 1 3 11 -5 13 -3 15 7 9 9 -5
11 -4 6 3 -10 17 -26 15 -26 -2z"/>
<path d="M2264 4539 c-4 -7 -3 -9 4 -5 6 3 13 -2 15 -11 4 -16 5 -16 6 -1 1
21 -15 32 -25 17z"/>
<path d="M2349 4526 c9 -11 9 -15 -1 -19 -9 -3 -6 -12 12 -28 22 -22 23 -22 6
-1 -18 20 -15 27 9 22 5 -1 1 8 -9 19 -21 23 -35 29 -17 7z"/>
<path d="M2383 4417 c0 -8 6 -14 14 -14 9 0 10 4 2 14 -6 7 -12 13 -14 13 -1
0 -2 -6 -2 -13z"/>
<path d="M1671 4411 c-9 -6 -5 -8 13 -8 14 0 26 3 26 8 0 11 -21 11 -39 0z"/>
<path d="M2422 4275 c0 -16 2 -22 5 -12 2 9 2 23 0 30 -3 6 -5 -1 -5 -18z"/>
<path d="M2571 4274 c0 -11 3 -14 6 -6 3 7 2 16 -1 19 -3 4 -6 -2 -5 -13z"/>
<path d="M2563 4225 c0 -8 4 -12 9 -9 5 3 6 10 3 15 -9 13 -12 11 -12 -6z"/>
<path d="M1647 3753 c-11 -10 -8 -43 3 -43 6 0 10 11 10 25 0 26 -2 29 -13 18z"/>
<path d="M818 3130 c-15 -4 -29 -5 -32 -2 -12 11 -6 -15 7 -32 20 -28 61 -18
65 17 4 29 2 30 -40 17z"/>
<path d="M1530 3103 c-58 -25 -120 -77 -120 -100 0 -8 -6 -16 -14 -19 -28 -11
-77 -121 -83 -189 -6 -64 -6 -65 19 -65 31 0 88 59 106 110 33 88 93 196 121
215 16 11 32 27 34 36 9 34 -8 37 -63 12z"/>
<path d="M810 3040 c0 -20 24 -60 34 -57 18 6 19 37 2 37 -9 0 -16 7 -16 15 0
8 -4 15 -10 15 -5 0 -10 -4 -10 -10z"/>
<path d="M1068 3032 c-28 -6 -23 -47 7 -60 21 -10 23 -15 15 -36 -10 -27 1
-42 23 -31 6 4 3 0 -7 -9 -11 -9 -42 -22 -71 -30 -72 -21 -116 -54 -131 -98
-14 -40 -44 -91 -51 -84 -2 2 5 22 16 45 31 60 25 63 -9 4 -31 -54 -54 -133
-39 -133 4 0 13 9 19 20 8 14 8 20 0 20 -21 0 1 20 51 45 60 30 68 30 76 8 9
-23 29 -43 42 -43 6 0 15 -9 21 -20 6 -11 8 -20 6 -20 -3 0 5 -15 17 -34 12
-18 27 -42 34 -52 11 -17 12 -18 12 -1 1 21 31 23 31 2 0 -23 18 -18 26 8 9
26 6 58 -7 71 -13 14 -11 57 5 87 12 24 12 26 -4 22 -12 -3 -16 -12 -13 -26 4
-20 2 -19 -17 6 -22 27 -40 28 -40 1 0 -8 7 -14 15 -14 16 0 19 -18 6 -38 -6
-10 -17 -11 -42 -5 -39 10 -50 38 -19 46 17 4 20 13 20 57 0 31 -4 49 -10 45
-26 -16 11 56 42 82 29 24 71 74 46 54 -13 -10 -18 -10 -18 -2 0 7 -4 9 -10 6
-12 -7 -2 21 17 51 13 20 11 24 -14 41 -15 11 -36 18 -45 15z"/>
<path d="M947 2963 c-18 -17 -5 -44 29 -58 20 -8 38 -15 40 -15 6 0 5 47 -2
64 -6 16 -54 22 -67 9z"/>
<path d="M1558 2945 c-23 -30 -22 -34 2 -32 15 1 20 8 20 29 0 34 0 34 -22 3z"/>
<path d="M3322 2925 c0 -16 2 -22 5 -12 2 9 2 23 0 30 -3 6 -5 -1 -5 -18z"/>
<path d="M3315 2838 c-4 -29 -14 -70 -21 -92 -8 -21 -13 -41 -10 -43 7 -7 44
113 45 150 2 54 -6 46 -14 -15z"/>
<path d="M626 2846 c-9 -14 -16 -34 -16 -44 0 -20 36 -41 73 -43 12 -1 4 -5
-18 -8 -32 -5 -47 -2 -75 17 l-35 24 26 -23 c14 -13 31 -43 38 -67 12 -43 67
-116 81 -107 12 8 68 -15 74 -30 3 -8 -3 -17 -15 -20 -10 -4 -17 -10 -14 -15
3 -5 12 -7 20 -3 8 3 15 0 15 -5 0 -16 -30 -19 -72 -9 -44 11 -46 18 -15 48
21 21 21 21 1 11 -32 -17 -47 -62 -20 -62 7 0 21 -15 30 -34 19 -40 20 -53 4
-58 -8 -3 -7 -14 5 -38 17 -33 17 -33 -3 -15 -11 10 -20 24 -20 30 0 20 -27
39 -33 23 -3 -8 -6 -5 -6 6 -1 18 -2 19 -21 1 -19 -17 -19 -16 2 22 13 23 19
47 15 57 -6 16 -9 16 -39 -5 -38 -27 -64 -30 -148 -12 -145 29 -256 3 -369
-89 -37 -29 -48 -63 -22 -65 9 -1 31 -5 50 -9 35 -7 162 11 194 28 14 7 24 5
39 -9 21 -18 21 -18 14 10 -4 16 -2 27 4 27 5 0 10 -6 11 -12 0 -7 4 -3 9 9 5
12 31 36 57 52 41 26 50 28 59 16 6 -8 14 -11 19 -7 4 4 1 -3 -6 -16 -13 -21
-12 -25 9 -42 31 -26 28 -46 -15 -73 l-36 -23 -39 19 c-54 27 -83 24 -126 -10
-61 -50 -69 -113 -14 -121 11 -2 32 -14 47 -28 17 -16 34 -23 45 -19 14 5 20
-1 25 -27 4 -18 18 -50 32 -71 24 -37 25 -38 44 -21 18 16 20 16 41 -2 58 -50
85 -89 93 -133 5 -29 4 -31 -14 -21 -11 5 -26 10 -33 9 -7 0 -3 -5 10 -11 33
-16 27 -26 -33 -53 -30 -13 -55 -28 -55 -33 0 -5 -13 -15 -30 -22 -33 -14 -39
-40 -15 -60 22 -19 18 -28 -17 -44 -18 -8 -27 -15 -21 -15 42 -3 -78 -114
-141 -131 -11 -3 -22 -12 -24 -19 -3 -10 11 -12 69 -10 41 2 77 8 81 13 3 5
12 3 20 -5 14 -14 15 -44 4 -114 -3 -22 -4 -34 0 -27 3 6 10 10 15 7 5 -4 6 1
3 9 -4 10 6 22 27 35 31 19 34 19 43 4 6 -11 4 -20 -5 -27 -15 -12 -24 -61
-10 -51 5 3 9 -6 7 -19 -1 -13 -24 -48 -49 -76 -26 -29 -47 -55 -47 -59 0 -4
-15 -18 -32 -31 -33 -23 -33 -22 5 16 34 37 49 63 28 50 -5 -3 -20 3 -34 14
-28 23 -28 23 -42 -48 -7 -32 -68 -92 -82 -79 -3 4 -15 0 -26 -8 -25 -17 -57
-3 -57 25 0 10 -4 22 -10 25 -5 3 -10 17 -10 30 0 22 -2 23 -30 12 -23 -9 -33
-9 -38 -1 -4 6 -17 14 -29 18 -13 4 -23 11 -23 16 0 5 -7 7 -15 4 -13 -5 -15
-51 -13 -333 0 -179 4 -303 8 -276 4 28 8 46 9 40 1 -5 6 0 12 13 5 14 13 20
20 16 8 -4 9 -3 5 4 -3 6 3 16 14 22 11 6 20 8 20 6 0 -3 12 -1 26 4 29 12
160 -15 182 -37 9 -8 23 -10 40 -6 15 4 38 7 52 6 122 -8 182 -8 187 0 3 5 8
5 12 -1 4 -6 6 7 6 29 0 21 -2 39 -6 39 -11 0 -31 57 -27 77 3 14 13 18 48 18
64 0 62 17 -4 39 -41 13 -56 23 -56 37 0 22 5 25 58 34 38 6 42 5 42 -14 0
-33 13 -24 33 22 10 23 23 50 28 60 5 10 7 35 3 55 -5 30 -4 35 7 25 12 -12
16 -24 22 -63 8 -46 54 -123 104 -171 l56 -54 -47 58 c-46 57 -81 116 -74 123
2 2 16 -3 31 -11 14 -7 39 -15 54 -16 15 -2 34 -7 41 -13 7 -5 15 -6 19 -2 4
3 24 -10 45 -31 39 -38 53 -37 21 1 -15 18 -14 18 8 -1 30 -27 51 -29 84 -7
13 9 28 13 33 10 5 -3 19 4 30 15 l22 20 0 -72 0 -71 28 7 c15 3 52 26 83 50
33 26 56 38 56 30 0 -8 -5 -13 -10 -12 -5 1 -12 -4 -14 -11 -3 -8 1 -10 11 -6
11 4 16 1 16 -11 0 -9 6 -15 13 -12 6 2 18 -10 25 -26 15 -35 15 -50 2 -42 -5
3 -10 -1 -10 -9 0 -8 5 -18 11 -21 6 -5 4 -12 -8 -20 -16 -12 -16 -14 -2 -20
18 -7 69 10 69 23 0 4 -11 23 -25 42 -29 39 -31 55 -10 64 8 3 15 13 15 23 0
15 -2 16 -10 3 -5 -8 -10 -10 -10 -4 0 5 7 19 15 30 8 10 15 15 14 9 -6 -43
20 -63 39 -29 5 9 12 16 15 15 4 0 21 5 37 11 22 7 29 15 25 26 -5 13 -3 13
12 1 9 -8 14 -9 11 -4 -4 6 0 36 7 68 7 31 9 55 4 51 -5 -3 -9 5 -8 18 0 13 3
18 5 11 3 -7 11 -10 19 -7 7 3 16 0 21 -7 4 -7 3 -10 -4 -5 -14 9 -21 -14 -11
-41 5 -13 5 -31 2 -40 -6 -16 -5 -17 13 -3 30 23 34 33 21 49 -10 12 -9 13 10
3 12 -7 25 -17 28 -23 8 -12 -23 -49 -41 -49 -7 0 -16 -9 -19 -20 -3 -11 -12
-20 -19 -20 -14 0 -19 -37 -5 -45 5 -4 9 3 9 14 0 23 10 27 27 10 7 -7 17 -4
35 13 13 13 15 16 4 8 -20 -15 -20 -15 -3 13 10 15 16 31 13 35 -3 5 4 13 15
20 16 10 19 9 20 -5 0 -12 2 -13 6 -5 3 7 -14 33 -38 57 -40 41 -43 47 -40 92
1 26 5 50 7 52 2 2 15 -1 29 -7 33 -15 33 1 0 18 -18 10 -25 22 -25 42 0 16 3
27 8 25 4 -3 8 5 8 16 1 12 7 49 14 81 13 65 4 175 -11 126 -7 -24 -7 -24 -8
-2 -1 15 -7 22 -20 22 -18 0 -18 4 -9 37 6 21 15 41 22 45 7 5 4 13 -11 23
-13 9 -22 24 -22 33 1 15 2 15 6 0 10 -41 22 -13 18 43 -3 34 -3 65 0 70 9 13
34 -1 29 -16 -3 -7 -1 -16 4 -19 6 -3 8 30 5 87 -4 86 -7 94 -34 120 -28 25
-30 35 -34 108 -4 77 -4 79 15 69 22 -12 26 -25 10 -35 -15 -9 -12 -22 5 -22
17 0 21 42 5 52 -14 9 -12 42 3 49 6 3 4 4 -7 3 -19 -2 -45 27 -33 39 3 4 15
1 24 -7 17 -12 17 -12 2 4 -20 22 -60 31 -53 12 3 -8 2 -20 -2 -27 -11 -17
-11 -57 -1 -55 19 4 16 -19 -4 -31 -15 -10 -19 -10 -14 -1 5 7 4 10 -2 6 -15
-9 -21 -86 -8 -91 14 -5 -25 -35 -56 -42 -21 -5 -25 -10 -21 -30 3 -17 0 -24
-12 -24 -9 0 -16 -3 -16 -7 0 -5 -9 -19 -19 -32 -19 -24 -19 -24 -46 -7 -26
17 -28 17 -77 -8 -64 -34 -71 -28 -13 9 25 15 45 30 45 32 0 2 -4 1 -10 -2 -5
-3 -10 -2 -10 4 0 17 22 24 31 10 4 -7 11 -10 15 -6 4 4 0 15 -10 25 -15 18
-15 21 5 45 19 25 26 27 95 27 41 0 74 3 74 8 0 4 7 52 15 107 8 55 15 103 15
108 0 4 -10 7 -22 8 -22 1 -22 1 2 8 22 6 25 13 28 56 3 43 2 47 -13 35 -13
-11 -15 -10 -9 6 4 10 12 25 18 33 9 11 8 13 -4 9 -8 -2 -23 -21 -33 -41 -19
-40 -33 -50 -24 -17 3 11 1 23 -4 26 -11 6 -5 34 14 73 8 17 9 25 1 28 -11 4
-8 97 5 120 8 16 6 -144 -3 -187 l-8 -35 15 27 c12 22 37 112 37 135 0 3 -7 0
-15 -7 -9 -7 -15 -8 -15 -2 0 5 14 15 30 21 18 6 30 17 30 28 0 11 -3 14 -8 7
-4 -6 -15 -13 -24 -17 -15 -5 -18 -1 -18 23 0 27 -15 48 -26 37 -3 -2 -7 -29
-11 -58 -3 -30 -12 -59 -20 -66 -8 -6 -12 -17 -7 -24 4 -8 3 -10 -4 -5 -7 4
-22 -10 -38 -34 -28 -43 -49 -48 -49 -12 -1 31 -7 33 -35 10 -15 -11 -18 -18
-8 -15 9 3 19 0 21 -7 4 -11 -1 -12 -29 -3 -37 11 -46 27 -14 27 11 0 20 5 20
11 0 6 -7 9 -15 6 -8 -4 -17 -2 -20 4 -4 5 -1 8 7 7 7 -2 12 3 10 10 -1 6 4
12 10 12 10 0 10 2 0 8 -9 7 -8 13 8 27 11 10 20 23 20 28 0 6 -6 2 -14 -9 -8
-10 -18 -19 -23 -19 -4 -1 -18 -6 -30 -13 -12 -6 -29 -9 -39 -5 -12 4 -15 3
-10 -5 4 -7 1 -12 -9 -12 -25 0 -77 -30 -73 -42 5 -14 29 -24 27 -11 -4 22 3
31 26 35 31 6 34 -16 5 -32 -27 -14 -25 -24 5 -38 31 -14 46 -15 25 -2 -9 6
-10 10 -3 10 6 0 20 3 30 6 13 4 14 3 5 -3 -15 -12 -5 -43 14 -43 8 0 13 -5
11 -11 -1 -6 8 -12 20 -14 13 -1 26 -5 30 -10 5 -4 -2 -5 -14 -2 -31 7 -29 -8
4 -39 17 -15 33 -22 45 -18 12 3 18 1 16 -7 -2 -7 10 -16 27 -20 l30 -7 -32
-1 c-18 0 -33 3 -33 8 0 6 -12 6 -27 2 -29 -8 -63 -1 -66 14 -1 4 -20 9 -42 9
-28 1 -40 5 -40 16 0 30 -28 60 -52 54 -21 -6 -22 -3 -17 35 4 38 3 41 -20 41
-14 0 -38 -11 -53 -25 -15 -14 -21 -23 -12 -19 10 3 20 0 24 -6 5 -8 13 -6 27
7 20 17 20 17 17 -3 -2 -12 5 -31 15 -43 22 -24 38 -28 30 -6 -9 22 4 18 16
-5 15 -29 -14 -38 -42 -14 -21 19 -21 19 -16 -3 4 -14 -1 -28 -13 -39 -10 -9
-19 -14 -19 -9 0 4 -7 2 -15 -5 -17 -14 -31 -7 -20 10 4 7 17 9 29 6 19 -5 19
-4 4 8 -14 10 -15 15 -5 26 9 10 7 10 -8 0 -11 -8 -25 -21 -31 -29 -17 -21
-26 3 -14 35 6 16 8 39 5 52 -5 20 -8 21 -20 9 -8 -8 -17 -28 -20 -43 l-7 -29
21 30 22 30 -7 -30 c-9 -39 -11 -41 -34 -27 -18 11 -20 9 -21 -15 -1 -16 -1
-34 0 -40 1 -9 -11 -12 -36 -11 -37 1 -37 1 -5 5 l32 4 -37 37 c-36 35 -59 83
-33 67 9 -6 9 -2 1 13 -18 34 -14 74 7 70 9 -2 19 -14 20 -27 4 -23 4 -23 39
10 l36 34 -19 -30 c-10 -16 -24 -37 -31 -46 -11 -13 -10 -19 2 -35 10 -13 14
-15 15 -5 0 8 8 20 18 28 9 8 11 11 3 7 -9 -5 -12 -3 -7 5 4 6 11 9 16 6 5 -3
25 4 44 16 36 21 47 39 24 39 -6 0 -8 3 -5 6 4 4 13 1 21 -5 8 -7 17 -8 20 -3
8 14 -13 28 -53 37 -21 4 -29 10 -22 15 8 4 -7 20 -44 45 -31 20 -54 39 -52
42 3 2 37 -12 76 -31 71 -36 102 -37 35 -1 -37 20 -99 83 -90 92 9 10 105 -67
126 -101 11 -19 31 -41 44 -50 21 -13 26 -13 36 -1 7 8 18 15 24 15 23 1 131
76 134 93 2 9 1 17 -2 17 -9 0 -81 -42 -98 -58 -18 -15 -23 -9 -19 25 1 6 -3
14 -9 18 -5 3 -10 -2 -10 -13 0 -20 -27 -92 -34 -92 -2 0 -2 10 1 23 3 12 2
19 -2 15 -12 -11 -35 11 -35 33 0 10 -5 21 -11 25 -8 4 -9 0 -4 -15 10 -33 -2
-25 -21 14 -9 19 -21 35 -26 35 -5 0 -6 4 -3 10 3 5 0 19 -8 30 -12 18 -15 19
-21 5 -3 -10 -14 -14 -28 -11 -13 3 -38 7 -57 10 l-34 6 23 -20 c26 -23 14
-27 -15 -6 -16 12 -25 12 -59 0 -68 -24 -50 -7 23 21 39 16 68 32 65 37 -3 5
-21 -1 -40 -13 -23 -14 -43 -19 -59 -15 -19 5 -25 2 -26 -11 0 -11 -3 -13 -6
-5 -2 6 -8 10 -13 7 -4 -3 -14 3 -21 13 -13 15 -12 16 4 3 10 -8 17 -9 17 -3
0 6 -5 14 -11 18 -8 5 -7 9 4 15 18 11 11 53 -8 45 -7 -2 -21 5 -32 17 -16 20
-16 20 0 8 15 -12 20 -12 30 -1 10 10 9 11 -2 5 -11 -6 -13 -4 -7 11 4 10 4
15 0 11 -9 -9 -73 93 -77 124 -6 35 -49 38 -71 5z m86 -186 c-1 -6 2 -8 8 -5
13 8 50 -22 50 -39 0 -8 -2 -8 -8 0 -8 12 -52 29 -66 26 -5 -2 -6 4 -3 12 4
10 0 14 -14 11 -15 -3 -24 4 -35 30 -21 50 -18 51 29 12 23 -20 41 -41 39 -47z
m28 60 c13 -8 13 -10 -2 -10 -9 0 -20 5 -23 10 -8 13 5 13 25 0z m6 -235 c15
-11 16 -14 3 -15 -8 0 -24 7 -35 15 -15 11 -16 14 -3 15 8 0 24 -7 35 -15z
m59 -21 c19 -29 12 -44 -12 -28 -21 13 -32 41 -12 28 12 -7 12 -5 0 9 -7 9 -9
17 -3 17 5 0 17 -12 27 -26z m392 -36 c-3 -7 -5 -2 -5 12 0 14 2 19 5 13 2 -7
2 -19 0 -25z m110 -23 c-11 -7 -26 -11 -35 -7 -14 5 -12 7 8 13 39 11 46 9 27
-6z m-727 -39 c0 -3 -4 -8 -10 -11 -5 -3 -10 -1 -10 4 0 6 5 11 10 11 6 0 10
-2 10 -4z m480 0 c0 -2 -7 -7 -16 -10 -8 -3 -12 -2 -9 4 6 10 25 14 25 6z
m422 -58 c-4 -18 -5 -18 -19 2 -8 11 -19 18 -24 15 -5 -3 -6 1 -2 10 5 13 7
14 14 3 6 -9 9 -6 9 12 l1 25 13 -24 c7 -13 11 -33 8 -43z m-89 -6 c-2 -7 2
-12 7 -12 6 0 27 -18 47 -41 34 -38 38 -39 50 -23 7 10 13 13 13 8 0 -6 -5
-15 -11 -21 -8 -8 -23 -3 -56 19 -37 25 -47 28 -55 17 -8 -11 -9 -11 -5 3 4
10 -3 22 -19 32 -32 22 -31 35 4 32 15 -1 26 -8 25 -14z m-648 -82 c8 -16 12
-37 8 -46 -4 -12 -3 -15 6 -10 6 4 25 -4 42 -18 24 -21 34 -24 50 -16 10 6 19
8 19 4 0 -3 8 0 17 7 15 12 16 12 10 -5 -6 -15 -4 -17 15 -12 43 13 78 15 78
6 0 -15 -44 -22 -100 -17 -36 4 -50 2 -47 -6 3 -7 10 -11 16 -9 7 1 10 -2 6
-8 -3 -5 1 -10 9 -10 20 0 17 11 24 -96 6 -75 4 -94 -8 -104 -8 -8 -26 -23
-40 -34 l-25 -21 25 28 c22 26 25 37 26 122 1 52 -3 92 -7 89 -4 -2 -13 5 -19
16 -11 21 -35 18 -27 -4 4 -9 -5 -11 -27 -8 l-31 5 28 -23 28 -22 -33 -29
c-18 -16 -25 -26 -15 -23 11 4 17 1 17 -10 0 -9 6 -16 13 -16 8 0 9 -3 1 -8
-6 -4 -17 -25 -24 -47 -7 -22 -19 -51 -27 -64 -14 -22 -14 -24 2 -17 15 5 16
4 5 -9 -19 -23 -43 -19 -35 5 5 16 2 20 -17 19 -13 0 -17 -3 -10 -6 6 -2 12
-12 12 -21 -1 -15 -2 -15 -14 1 -15 19 -51 23 -62 6 -3 -6 -1 -15 5 -19 9 -5
8 -10 -3 -19 -8 -7 -20 -10 -26 -6 -5 3 -10 -1 -10 -10 0 -9 -6 -15 -12 -12
-7 2 -13 12 -13 23 0 15 6 19 30 17 18 -1 25 1 17 5 -17 11 29 55 50 47 10 -4
17 1 21 14 3 15 -1 21 -17 23 -16 3 -13 5 11 9 29 5 31 4 22 -14 -6 -10 -8
-21 -5 -24 8 -9 56 15 56 27 0 14 -17 13 -23 -2 -4 -10 -6 -10 -6 0 -1 8 8 16
19 19 11 3 20 13 20 22 0 9 6 23 13 30 10 11 9 13 -5 8 -17 -6 -28 15 -58 115
-6 20 -17 42 -25 48 -11 9 -11 16 1 45 8 19 14 51 14 70 0 41 12 39 35 -5z
m-417 -28 c2 -7 -7 -12 -23 -12 -22 0 -24 2 -13 15 15 16 30 15 36 -3z m247
-26 c0 -19 -3 -32 -6 -30 -7 4 -62 -47 -56 -52 1 -2 16 -10 32 -19 l30 -17
-42 6 c-28 4 -43 2 -46 -7 -3 -6 -6 6 -6 28 -1 38 2 42 32 50 24 8 34 18 42
43 12 41 20 41 20 -2z m331 9 c1 -8 -2 -15 -7 -15 -5 0 -9 10 -9 22 0 23 12
17 16 -7z m114 -5 c0 -5 -5 -10 -11 -10 -5 0 -7 5 -4 10 3 6 8 10 11 10 2 0 4
-4 4 -10z m199 -32 c1 7 5 11 10 8 5 -4 5 -18 -2 -36 -8 -21 -14 -26 -23 -19
-16 13 -26 -13 -12 -32 8 -11 9 -11 5 3 -4 12 0 16 14 15 10 -1 19 -7 19 -15
0 -7 -4 -10 -10 -7 -6 3 -7 -1 -3 -10 8 -22 22 -1 24 35 1 19 3 17 8 -10 5
-27 3 -37 -11 -44 -13 -6 -16 -16 -11 -40 3 -17 10 -37 16 -43 7 -10 4 -13
-11 -13 -21 0 -46 -31 -37 -44 3 -3 2 -4 -1 -1 -4 2 -16 -1 -27 -6 -14 -8 -16
-13 -8 -19 9 -5 8 -9 -4 -13 -10 -4 -14 -3 -9 4 4 8 -1 9 -17 4 -20 -6 -19 -2
11 24 22 19 29 30 20 31 -8 0 -24 8 -35 17 l-20 16 20 -8 c46 -16 75 -17 75 0
0 9 5 13 10 10 6 -3 10 -1 10 4 0 6 -7 11 -15 11 -8 0 -15 9 -15 19 0 11 -4
23 -10 26 -5 3 -10 0 -10 -7 0 -9 -3 -9 -10 2 -13 20 -13 40 1 40 5 0 7 -5 3
-12 -4 -7 -3 -8 4 -4 8 5 8 15 2 32 -15 39 -12 62 12 86 21 21 22 21 29 2 4
-10 8 -13 8 -6z m-168 -39 c-5 -13 -10 -19 -10 -12 -1 15 10 45 15 40 3 -2 0
-15 -5 -28z m433 -25 c7 -26 -16 -76 -32 -72 -4 1 -20 -6 -35 -16 -31 -21 -51
-13 -21 8 10 8 16 18 12 21 -10 11 20 65 36 65 8 0 17 -10 21 -22 4 -14 8 -18
11 -11 3 7 -1 27 -10 44 -12 24 -12 28 -2 20 8 -7 17 -23 20 -37z m-471 -17
c-8 -5 -17 -6 -20 -3 -4 3 -1 6 5 6 7 0 12 10 13 23 0 21 1 21 8 2 6 -14 4
-23 -6 -28z m-76 8 c0 -11 -4 -12 -14 -4 -7 6 -13 13 -13 15 0 2 6 4 13 4 8 0
14 -7 14 -15z m183 5 c0 -5 7 -10 16 -10 11 0 14 -6 9 -21 -8 -25 13 -81 27
-73 6 4 5 -3 -1 -15 -14 -26 -14 -26 -37 1 -15 19 -16 20 -1 9 21 -16 23 2 2
19 -13 11 -21 7 -51 -26 -31 -34 -33 -35 -15 -7 27 40 26 45 -6 74 -19 17 -25
19 -20 7 4 -12 2 -15 -9 -11 -7 3 -14 7 -14 10 0 11 33 36 58 43 37 11 42 11
42 0z m-165 -40 c3 -5 1 -10 -4 -10 -6 0 -11 5 -11 10 0 6 2 10 4 10 3 0 8 -4
11 -10z m51 -12 c4 -7 4 -10 -1 -6 -4 4 -14 3 -22 -3 -10 -9 -13 -8 -13 5 0
19 26 22 36 4z m246 -45 c-10 -28 -10 -28 -11 12 -1 28 2 36 10 28 8 -8 8 -19
1 -40z m-226 -10 c-7 -7 -26 7 -26 19 0 6 6 6 15 -2 9 -7 13 -15 11 -17z m246
-15 c-8 -8 -9 -4 -5 13 4 13 8 18 11 10 2 -7 -1 -18 -6 -23z m86 2 c-7 -11
-16 -20 -21 -20 -4 0 -6 -4 -2 -9 3 -5 1 -12 -5 -16 -6 -4 -8 -10 -5 -15 3 -5
-5 -14 -17 -21 -13 -7 -38 -27 -55 -46 -21 -22 -33 -29 -33 -19 0 8 9 18 21
21 12 4 18 12 15 21 -3 8 1 14 9 14 7 0 17 4 20 10 4 6 -2 7 -17 1 -13 -4 -21
-12 -20 -16 5 -12 -19 -24 -35 -18 -10 4 -11 9 -4 16 5 5 7 15 5 22 -7 17 71
69 95 62 12 -3 27 3 37 14 22 25 27 24 12 -1z m-527 -29 c-17 -32 -31 -25 -18
9 6 17 15 26 20 21 5 -5 4 -18 -2 -30z m225 -82 c27 -12 33 -18 19 -18 -12 -1
-27 5 -34 12 -11 10 -13 9 -8 -5 14 -39 -13 -15 -37 34 -32 65 -34 100 -2 38
17 -31 35 -49 62 -61z m511 85 c-3 -3 -12 -4 -19 -1 -8 3 -5 6 6 6 11 1 17 -2
13 -5z m-657 -89 c-7 -9 -15 -13 -18 -10 -3 2 1 11 8 20 7 9 15 13 18 10 3 -2
-1 -11 -8 -20z m50 -3 c0 -15 -2 -15 -10 -2 -13 20 -13 33 0 25 6 -3 10 -14
10 -23z m227 2 c-3 -3 -12 -4 -19 -1 -8 3 -5 6 6 6 11 1 17 -2 13 -5z m-148
-74 c7 -6 43 -57 56 -80 4 -8 -4 -4 -19 10 -35 31 -86 109 -86 129 0 9 10 0
21 -19 12 -19 24 -37 28 -40z m149 24 c40 -20 40 -23 0 -18 -18 3 -43 6 -55 7
-11 1 -19 5 -17 9 2 4 -6 9 -18 11 -13 2 -5 5 18 6 22 0 55 -6 72 -15z m-506
-16 c-12 -16 -1 -48 23 -68 16 -14 17 -13 10 10 -4 14 -12 31 -17 38 -13 15 4
16 19 1 6 -6 22 -17 35 -23 12 -6 24 -22 26 -34 4 -25 -1 -27 -29 -12 -10 6
-19 8 -19 6 0 -3 12 -12 26 -19 17 -9 23 -17 15 -21 -6 -4 -11 -3 -11 3 0 5
-9 10 -20 10 -54 2 -64 3 -54 7 8 4 6 17 -7 44 -22 46 -23 57 -6 63 19 8 20 8
9 -5z m-16 -85 c-1 -10 -6 -25 -9 -33 -24 -55 -35 -100 -26 -105 5 -4 9 -12 8
-18 0 -9 -2 -9 -6 1 -6 15 -24 16 -21 1 2 -6 -2 -13 -8 -16 -9 -3 -9 5 0 31 7
20 15 39 19 42 4 4 7 12 7 18 0 6 -36 -27 -80 -73 -44 -46 -80 -81 -80 -78 0
4 27 38 61 77 48 57 59 75 53 93 -6 19 -5 20 10 8 14 -12 19 -11 36 4 10 9 19
20 18 24 -2 8 13 41 18 41 2 0 2 -8 0 -17z m594 -14 c0 -5 4 -8 9 -4 15 9 24
-34 10 -51 -9 -11 -15 -12 -25 -3 -16 13 -19 69 -4 69 6 0 10 -5 10 -11z
m-760 -20 c0 -5 -4 -9 -10 -9 -5 0 -10 7 -10 16 0 8 5 12 10 9 6 -3 10 -10 10
-16z m345 11 c3 -6 -1 -7 -9 -4 -18 7 -21 14 -7 14 6 0 13 -4 16 -10z m-160
-30 c-3 -5 -11 -10 -16 -10 -6 0 -7 5 -4 10 3 6 11 10 16 10 6 0 7 -4 4 -10z
m65 -18 c0 -15 5 -33 12 -40 9 -9 9 -12 -3 -12 -8 0 -10 -3 -4 -8 6 -4 8 -20
4 -37 l-6 -30 -8 32 c-5 23 -12 30 -24 26 -11 -3 -12 -2 -4 4 7 5 13 28 14 51
3 46 19 59 19 14z m55 18 c3 -5 2 -10 -4 -10 -5 0 -13 5 -16 10 -3 6 -2 10 4
10 5 0 13 -4 16 -10z m172 -6 c-3 -3 -12 -4 -19 -1 -8 3 -5 6 6 6 11 1 17 -2
13 -5z m-264 -24 c-3 -12 -8 -19 -11 -16 -5 6 5 36 12 36 2 0 2 -9 -1 -20z
m152 1 c3 -5 2 -12 -3 -15 -5 -3 -9 1 -9 9 0 17 3 19 12 6z m75 -61 c29 -22
49 -40 44 -40 -11 0 -114 68 -114 75 0 12 21 2 70 -35z m-134 -208 c-7 -7 -26
99 -25 141 1 30 5 17 15 -47 7 -49 12 -91 10 -94z m594 153 c13 -14 21 -25 18
-25 -2 0 -15 11 -28 25 -13 14 -21 25 -18 25 2 0 15 -11 28 -25z m157 -57 c-2
-18 -4 -6 -4 27 0 33 2 48 4 33 2 -15 2 -42 0 -60z m-852 -24 c20 -37 34 -76
33 -88 -3 -15 -14 0 -41 56 -34 71 -43 98 -33 98 2 0 21 -30 41 -66z m765 21
c19 -19 32 -35 29 -35 -3 0 -20 16 -39 35 -19 19 -32 35 -29 35 3 0 20 -16 39
-35z m140 31 c0 -2 -8 -10 -17 -17 -16 -13 -17 -12 -4 4 13 16 21 21 21 13z
m-224 -17 c3 -6 1 -16 -5 -22 -8 -8 -11 -8 -11 1 0 7 -7 9 -17 5 -16 -6 -16
-5 -4 10 16 20 27 22 37 6z m252 -11 c-2 -8 6 -13 20 -12 14 1 22 -4 22 -15 0
-25 -13 -38 -34 -35 -11 1 -24 0 -30 -3 -17 -11 -56 -9 -56 2 0 7 12 18 26 25
14 8 30 22 35 32 11 21 20 24 17 6z m-164 -65 c4 -9 -4 -11 -27 -6 -37 7 -57
20 -57 38 0 8 6 15 13 18 13 4 62 -30 71 -50z m-810 -7 c-10 -8 -21 -12 -24
-10 -5 6 21 24 34 24 6 0 1 -6 -10 -14z m530 -11 c-4 -8 -8 -15 -10 -15 -2 0
-4 7 -4 15 0 8 4 15 10 15 5 0 7 -7 4 -15z m-574 -5 c0 -5 -7 -10 -16 -10 -8
0 -12 5 -9 10 3 6 10 10 16 10 5 0 9 -4 9 -10z m1017 -9 c-3 -12 0 -18 7 -15
7 3 12 -4 12 -16 0 -11 -4 -20 -7 -20 -4 0 -10 -9 -14 -20 -5 -16 -10 -18 -31
-8 -23 11 -28 36 -6 31 7 -2 9 4 5 14 -4 11 -3 14 5 9 7 -4 14 3 18 19 3 14 8
25 11 25 3 0 3 -9 0 -19z m-79 -11 c14 0 22 -4 17 -8 -6 -4 -46 -5 -90 -3 -77
5 -78 5 -30 11 28 4 56 5 63 3 8 -1 25 -3 40 -3z m-163 -5 c-23 -8 -85 -10
-85 -3 0 4 21 8 48 7 26 0 43 -2 37 -4z m-762 -25 c-3 -11 -7 -20 -9 -20 -2 0
-4 9 -4 20 0 11 4 20 9 20 5 0 7 -9 4 -20z m41 -16 c3 -8 2 -12 -4 -9 -6 3
-10 10 -10 16 0 14 7 11 14 -7z m105 -44 c1 -29 41 -58 106 -77 40 -11 40 -11
8 -12 -47 -1 -81 15 -132 62 -25 23 -45 43 -43 45 1 1 2 7 2 13 0 8 -5 8 -15
-1 -9 -7 -15 -8 -15 -2 0 20 30 21 42 2 7 -11 16 -20 21 -20 4 0 6 4 3 9 -4 5
-3 17 1 27 6 16 7 16 14 -2 4 -10 8 -30 8 -44z m431 40 c0 -5 -2 -10 -4 -10
-3 0 -8 5 -11 10 -3 6 -1 10 4 10 6 0 11 -4 11 -10z m-555 -29 c-3 -6 -11 -11
-17 -11 -6 0 -6 6 2 15 14 17 26 13 15 -4z m953 -6 c2 -2 0 -10 -5 -17 -7 -12
-12 -12 -33 -1 -14 7 -19 13 -12 13 7 0 10 5 6 11 -4 8 1 9 17 4 13 -4 26 -9
27 -10z m-919 -21 c-17 -21 -31 -17 -19 6 6 11 15 18 21 14 6 -4 6 -11 -2 -20z
m576 -11 c26 -39 34 -38 14 0 -10 20 -9 19 12 -3 14 -14 20 -28 15 -31 -12 -9
3 -31 18 -26 9 4 12 -17 11 -73 0 -43 -3 -81 -6 -84 -3 -3 -6 16 -6 42 0 41
-7 61 -46 124 -26 41 -47 78 -47 81 0 15 10 5 35 -30z m195 -24 c0 -4 -9 -7
-20 -6 -11 1 -20 7 -20 13 0 7 -7 14 -15 18 -8 3 -15 12 -15 21 0 13 8 10 35
-11 19 -14 35 -30 35 -35z m0 51 c0 -5 -7 -10 -16 -10 -8 0 -12 5 -9 10 3 6
10 10 16 10 5 0 9 -4 9 -10z m35 -52 c16 -68 16 -73 5 -62 -6 6 -13 21 -15 34
-2 13 -9 28 -14 33 -11 11 -3 39 9 32 4 -2 11 -19 15 -37z m-803 -1 c-7 -8 -8
-18 -4 -22 4 -5 2 -5 -4 -2 -6 4 -19 -2 -29 -13 -10 -11 -13 -20 -7 -20 6 0
14 5 17 10 3 6 11 10 16 10 5 0 2 -12 -8 -26 -10 -16 -19 -22 -21 -15 -3 8
-13 5 -29 -11 l-26 -23 15 28 c15 31 80 105 87 100 2 -1 -1 -9 -7 -16z m865 7
c-3 -3 -12 -4 -19 -1 -8 3 -5 6 6 6 11 1 17 -2 13 -5z m-782 -24 c13 -6 15 -9
5 -9 -8 0 -22 4 -30 9 -18 12 -2 12 25 0z m-45 -9 c0 -6 -4 -13 -10 -16 -5 -3
-10 1 -10 9 0 9 5 16 10 16 6 0 10 -4 10 -9z m852 -3 c19 2 28 -2 28 -13 0
-18 -17 -20 -23 -2 -2 6 -8 9 -12 5 -4 -4 8 -16 26 -27 22 -14 28 -21 17 -21
-10 0 -18 -5 -18 -11 0 -5 -5 -7 -12 -3 -9 6 -9 9 0 12 7 2 -4 19 -26 39 -20
20 -30 32 -22 28 8 -5 27 -8 42 -7z m-31 -41 l11 -22 -21 22 c-22 23 -28 39
-11 28 5 -3 15 -16 21 -28z m-766 12 c-7 -11 -35 -12 -35 -1 0 4 9 8 20 9 11
1 18 -2 15 -8z m-39 -46 c-3 -3 -8 2 -12 11 -3 9 -10 13 -15 10 -5 -3 -6 2 -3
11 6 14 9 13 21 -5 8 -12 12 -24 9 -27z m611 5 c-3 -8 -6 -5 -6 6 -1 11 2 17
5 13 3 -3 4 -12 1 -19z m-127 -4 c0 -8 -4 -12 -10 -9 -5 3 -10 2 -10 -4 0 -5
4 -13 10 -16 12 -7 -17 -55 -34 -55 -6 0 -19 7 -29 15 -18 13 -18 15 -1 44 15
26 26 32 67 40 4 0 7 -6 7 -15z m281 -32 c10 -7 17 -21 16 -32 -1 -11 -4 -16
-7 -12 -3 4 -19 22 -35 41 -17 19 -24 31 -17 27 7 -4 12 -2 13 6 0 9 2 8 6 -2
4 -8 14 -21 24 -28z m-946 -77 c-19 -49 -35 -93 -35 -99 0 -6 -12 -24 -26 -41
-20 -23 -22 -25 -10 -5 8 14 29 66 47 115 33 96 48 129 55 123 2 -2 -12 -44
-31 -93z m325 85 c13 -8 13 -10 -2 -10 -9 0 -20 5 -23 10 -8 13 5 13 25 0z
m-408 -65 c3 -14 2 -25 -3 -25 -12 0 -30 36 -22 44 12 12 21 6 25 -19z m188 8
c0 -7 -9 -13 -19 -13 -23 0 -37 16 -19 22 24 8 38 5 38 -9z m-202 -78 c-2 -30
-4 -33 -16 -21 -11 11 -12 17 0 35 17 28 19 27 16 -14z m1055 -5 c5 -22 3 -26
-16 -27 -12 0 -16 1 -9 4 6 3 12 16 12 31 0 30 5 27 13 -8z m-450 -11 c-8 -8
-13 -7 -18 2 -5 8 -4 10 3 5 7 -4 12 -2 12 5 0 7 3 9 7 6 4 -4 2 -12 -4 -18z"/>
<path d="M800 2110 c19 -13 30 -13 30 0 0 6 -10 10 -22 10 -19 0 -20 -2 -8
-10z"/>
<path d="M1441 2034 c0 -11 3 -14 6 -6 3 7 2 16 -1 19 -3 4 -6 -2 -5 -13z"/>
<path d="M1069 2026 c30 -32 43 -33 39 -3 -2 16 -11 23 -33 25 l-30 4 24 -26z"/>
<path d="M1230 1890 c-8 -5 -11 -12 -7 -17 5 -4 12 -1 17 6 6 10 19 12 46 8
27 -4 34 -3 24 3 -19 12 -61 12 -80 0z"/>
<path d="M1256 1628 c3 -4 9 -8 15 -8 5 0 9 4 9 8 0 5 -7 9 -15 9 -8 0 -12 -4
-9 -9z"/>
<path d="M1572 2865 c-1 -5 -25 -23 -54 -40 -62 -37 -134 -98 -120 -103 6 -2
29 6 51 17 43 22 76 27 85 12 5 -8 -22 -22 -71 -36 -28 -8 -29 -25 -4 -56 19
-24 20 -24 34 -4 12 15 18 17 29 8 10 -9 19 -8 36 6 21 16 23 23 19 111 -1 52
-4 91 -5 85z"/>
<path d="M3405 2860 c-3 -6 1 -7 9 -4 18 7 21 14 7 14 -6 0 -13 -4 -16 -10z"/>
<path d="M350 2821 c5 -11 10 -22 10 -25 0 -10 -74 2 -78 13 -2 6 -8 11 -13
11 -19 0 -7 -16 31 -40 22 -13 40 -28 40 -32 0 -4 6 -8 13 -8 7 0 19 -9 26
-19 8 -11 20 -17 28 -14 8 3 2 -7 -14 -23 -30 -32 -47 -36 -19 -5 17 18 16 20
-9 38 -14 10 -35 26 -47 36 -24 20 -37 15 -18 -8 11 -13 8 -13 -19 -4 -38 14
-44 10 -35 -25 7 -29 32 -57 119 -131 55 -47 63 -50 117 -52 31 0 62 -5 69 -9
7 -4 9 -3 6 3 -4 6 7 16 25 22 26 9 35 8 50 -5 10 -10 18 -12 18 -7 0 6 -6 13
-14 16 -7 3 -16 25 -20 49 -4 23 -16 63 -28 86 -20 42 -22 44 -57 38 -78 -11
-95 -13 -78 -9 27 7 21 17 -39 72 -58 53 -82 65 -64 32z m-26 -146 c-12 -9
-13 -13 -4 -10 11 4 16 -1 17 -15 2 -17 -1 -18 -17 -10 -38 20 -33 49 9 50 11
0 9 -4 -5 -15z"/>
<path d="M3377 2824 c2 -7 -4 -15 -15 -18 -11 -4 -19 -14 -18 -23 4 -23 22
-28 29 -8 4 8 2 15 -4 15 -5 0 2 11 16 24 24 22 25 25 7 23 -11 0 -18 -6 -15
-13z"/>
<path d="M750 2790 c6 -11 13 -20 16 -20 2 0 0 9 -6 20 -6 11 -13 20 -16 20
-2 0 0 -9 6 -20z"/>
<path d="M20 2756 c0 -9 5 -16 10 -16 6 0 10 4 10 9 0 6 -4 13 -10 16 -5 3
-10 -1 -10 -9z"/>
<path d="M776 2747 c3 -10 9 -15 12 -12 3 3 0 11 -7 18 -10 9 -11 8 -5 -6z"/>
<path d="M1185 2719 c-4 -6 -5 -12 -2 -15 2 -3 7 2 10 11 7 17 1 20 -8 4z"/>
<path d="M1606 2703 c-6 -14 -5 -15 5 -6 7 7 10 15 7 18 -3 3 -9 -2 -12 -12z"/>
<path d="M0 2700 c0 -8 24 -20 41 -20 6 0 8 4 5 9 -8 12 -46 21 -46 11z"/>
<path d="M886 2665 c-10 -8 -24 -25 -32 -39 -12 -25 -11 -26 12 -26 15 0 23 4
19 10 -4 6 1 22 10 36 20 31 17 37 -9 19z"/>
<path d="M1161 2664 c0 -11 3 -14 6 -6 3 7 2 16 -1 19 -3 4 -6 -2 -5 -13z"/>
<path d="M108 2653 c-10 -2 -18 -9 -18 -14 0 -5 -9 -9 -20 -9 -29 0 -25 -14 8
-26 23 -9 33 -8 50 7 20 15 22 51 3 48 -3 -1 -14 -3 -23 -6z"/>
<path d="M1500 2628 c-9 -20 -9 -30 0 -44 10 -16 10 -15 5 10 -5 23 -3 27 9
23 18 -7 20 1 7 22 -8 12 -12 10 -21 -11z"/>
<path d="M1563 2642 c-8 -5 -8 -12 3 -26 13 -19 14 -19 14 7 0 30 0 30 -17 19z"/>
<path d="M2793 2637 c-8 -14 -1 -14 47 0 l45 12 -43 -2 c-24 0 -46 -5 -49 -10z"/>
<path d="M1410 2626 c0 -2 8 -10 18 -17 15 -13 16 -12 3 4 -13 16 -21 21 -21
13z"/>
<path d="M207 2613 c-11 -11 -8 -20 7 -20 8 0 12 6 9 14 -6 15 -7 15 -16 6z"/>
<path d="M1160 2611 c0 -5 7 -12 16 -15 14 -5 15 -4 4 9 -14 17 -20 19 -20 6z"/>
<path d="M245 2590 c-3 -5 1 -10 10 -10 9 0 13 5 10 10 -3 6 -8 10 -10 10 -2
0 -7 -4 -10 -10z"/>
<path d="M1460 2586 c0 -8 4 -17 10 -21 18 -11 -1 -36 -22 -29 -14 4 -18 2
-14 -5 4 -6 3 -11 -1 -11 -5 0 -15 -16 -22 -35 -7 -19 -17 -35 -22 -35 -13 0
-11 18 3 22 8 3 8 9 0 24 -6 10 -12 13 -12 7 0 -7 -1 -16 -2 -20 -1 -5 -5 -23
-9 -40 -4 -18 -3 -33 2 -33 5 0 9 -6 9 -14 0 -7 7 -19 15 -26 13 -11 13 -15 3
-22 -10 -7 -10 -9 2 -5 9 2 14 14 13 26 -2 12 4 24 12 27 8 4 12 10 9 15 -3 5
2 6 10 3 8 -3 19 3 25 15 13 24 14 31 3 31 -15 0 -62 -45 -62 -58 0 -7 -4 -10
-10 -7 -23 14 -9 42 30 59 42 18 50 33 25 42 -18 7 -20 28 -2 21 6 -2 20 2 29
10 13 12 14 20 6 44 -10 30 -28 39 -28 15z"/>
<path d="M1520 2591 c0 -6 4 -13 10 -16 6 -3 7 1 4 9 -7 18 -14 21 -14 7z"/>
<path d="M1319 2584 c6 -3 7 -14 1 -29 -9 -23 -8 -24 18 -14 20 8 29 7 37 -3
5 -7 17 -14 25 -16 8 -2 2 8 -15 22 -16 14 -36 23 -42 21 -7 -2 -12 1 -10 7 1
6 -4 12 -11 14 -7 1 -8 0 -3 -2z"/>
<path d="M1180 2571 c0 -6 5 -13 10 -16 6 -3 10 1 10 9 0 9 -4 16 -10 16 -5 0
-10 -4 -10 -9z"/>
<path d="M1272 2535 c-15 -32 -12 -40 10 -22 10 7 13 19 9 30 -6 17 -8 16 -19
-8z"/>
<path d="M170 2540 c0 -5 5 -10 11 -10 5 0 7 5 4 10 -3 6 -8 10 -11 10 -2 0
-4 -4 -4 -10z"/>
<path d="M2818 2528 c5 -5 16 -8 23 -6 8 3 3 7 -10 11 -17 4 -21 3 -13 -5z"/>
<path d="M1355 2510 c-3 -5 -1 -10 4 -10 6 0 11 5 11 10 0 6 -2 10 -4 10 -3 0
-8 -4 -11 -10z"/>
<path d="M2860 2516 c0 -2 7 -7 16 -10 8 -3 12 -2 9 4 -6 10 -25 14 -25 6z"/>
<path d="M1160 2468 c0 -36 4 -35 14 5 4 16 2 27 -4 27 -5 0 -10 -14 -10 -32z"/>
<path d="M1141 2454 c0 -11 3 -14 6 -6 3 7 2 16 -1 19 -3 4 -6 -2 -5 -13z"/>
<path d="M1100 2390 c0 -6 7 -10 15 -10 8 0 15 2 15 4 0 2 -7 6 -15 10 -8 3
-15 1 -15 -4z"/>
<path d="M1340 2390 c0 -5 5 -10 10 -10 6 0 10 5 10 10 0 6 -4 10 -10 10 -5 0
-10 -4 -10 -10z"/>
<path d="M1813 2352 c0 -39 6 -51 11 -20 1 7 6 19 10 27 6 9 5 12 -2 7 -6 -3
-13 2 -15 11 -3 10 -4 -1 -4 -25z"/>
<path d="M1210 2296 c0 -2 7 -9 15 -16 9 -7 15 -8 15 -2 0 5 -7 12 -15 16 -8
3 -15 4 -15 2z"/>
<path d="M1077 2284 c-4 -4 -7 -17 -7 -28 0 -19 1 -19 17 -3 12 11 14 20 7 27
-6 6 -13 7 -17 4z"/>
<path d="M1264 2242 c10 -12 23 -19 27 -16 5 3 6 -2 3 -11 -5 -11 -2 -14 10
-9 21 8 20 23 -1 30 -10 3 -27 10 -38 16 -20 11 -20 10 -1 -10z"/>
<path d="M1860 2234 c0 -12 -11 -42 -25 -68 -30 -56 -32 -86 -7 -86 49 0 75
77 48 141 -12 25 -15 29 -16 13z"/>
<path d="M186 2035 c-9 -23 -8 -25 9 -25 17 0 19 9 6 28 -7 11 -10 10 -15 -3z"/>
<path d="M480 1915 c0 -8 -11 -20 -24 -25 -13 -5 -27 -18 -31 -29 -3 -11 -22
-29 -41 -40 -50 -30 -87 -120 -43 -106 12 4 27 8 35 9 7 1 21 9 31 18 10 8 23
13 30 11 21 -8 73 26 73 48 0 12 10 23 26 30 39 14 24 20 -19 7 -50 -15 -60
-3 -37 44 10 21 14 40 9 44 -5 3 -9 -2 -9 -11z"/>
<path d="M515 1890 c3 -6 20 -10 37 -10 38 0 34 5 -10 13 -21 4 -31 3 -27 -3z"/>
<path d="M1808 1834 c-3 -5 -4 -22 -4 -39 1 -34 29 -43 34 -10 3 22 -22 63
-30 49z"/>
<path d="M252 1741 c-11 -7 -11 -9 2 -14 10 -4 16 -1 16 8 0 17 -1 17 -18 6z"/>
<path d="M193 1729 c-6 -6 -38 -13 -71 -16 l-60 -6 0 -43 c1 -32 5 -44 19 -47
36 -10 41 32 6 57 -21 16 -21 16 0 6 13 -6 23 -6 25 0 2 5 12 11 23 13 11 1
26 6 34 11 9 6 12 5 9 -5 -7 -20 17 -63 48 -88 19 -15 22 -21 10 -21 -9 0 -25
9 -36 20 -11 11 -20 16 -20 10 0 -5 11 -17 25 -26 22 -14 30 -15 53 -4 16 7
22 15 15 17 -29 10 -11 24 25 18 20 -3 31 -2 25 1 -7 3 -13 15 -13 26 0 14 -6
19 -22 18 -47 -4 -59 1 -69 27 -7 20 -6 28 3 35 10 6 9 8 -2 8 -9 0 -21 -5
-27 -11z"/>
<path d="M1813 1713 c0 -10 4 -10 16 -1 9 7 18 13 20 15 2 1 -5 1 -16 0 -11 0
-20 -7 -20 -14z"/>
<path d="M415 1710 c-3 -5 -1 -10 4 -10 6 0 11 5 11 10 0 6 -2 10 -4 10 -3 0
-8 -4 -11 -10z"/>
<path d="M1652 1675 c0 -16 2 -22 5 -12 2 9 2 23 0 30 -3 6 -5 -1 -5 -18z"/>
<path d="M1819 1683 c-13 -16 -12 -17 4 -4 9 7 17 15 17 17 0 8 -8 3 -21 -13z"/>
<path d="M336 1605 c-45 -13 -84 -35 -60 -35 22 0 113 31 119 40 8 12 3 12
-59 -5z"/>
<path d="M218 1483 c7 -3 16 -2 19 1 4 3 -2 6 -13 5 -11 0 -14 -3 -6 -6z"/>
<path d="M365 1425 c-15 -37 -27 -48 -37 -33 -6 10 -10 10 -18 -2 -13 -19 -13
-33 0 -25 14 9 12 -18 -2 -35 -11 -12 -10 -12 5 -1 9 7 17 18 17 24 0 6 12 21
26 32 17 14 25 28 22 40 -5 20 -5 20 -13 0z"/>
<path d="M1790 1420 c0 -5 7 -10 15 -10 8 0 15 5 15 10 0 6 -7 10 -15 10 -8 0
-15 -4 -15 -10z"/>
<path d="M250 1410 c0 -5 4 -10 9 -10 5 0 18 -3 28 -7 16 -6 16 -5 4 10 -15
19 -41 23 -41 7z"/>
<path d="M280 1285 c-7 -9 -11 -17 -9 -20 3 -2 10 5 17 15 14 24 10 26 -8 5z"/>
<path d="M3991 1292 c4 -25 -5 -30 -46 -29 -41 2 -47 -1 -44 -19 0 -4 -4 -10
-11 -14 -6 -4 -12 -13 -13 -21 -2 -8 -6 -19 -9 -25 -4 -5 -5 -19 -4 -30 2 -10
-2 -22 -8 -26 -7 -5 -4 -14 10 -29 18 -18 38 -24 97 -28 5 -1 6 -5 3 -10 -7
-10 22 -24 34 -16 5 3 12 0 16 -6 4 -8 3 -9 -4 -5 -7 4 -12 3 -12 -3 0 -5 8
-9 19 -8 15 1 17 7 14 35 -3 18 -2 41 2 50 11 25 14 72 5 72 -4 0 -7 12 -7 26
0 14 -5 30 -11 36 -13 13 -34 1 -26 -15 3 -7 -1 -4 -9 6 -9 11 -17 14 -20 7
-3 -6 -4 -5 -2 2 1 7 8 12 14 10 11 -2 41 21 41 31 0 3 -7 7 -15 11 -8 3 -14
2 -14 -2z"/>
<path d="M364 1282 c4 -7 2 -19 -4 -27 -9 -11 -9 -15 -1 -15 18 0 25 30 11 43
-10 9 -11 9 -6 -1z"/>
<path d="M0 1269 c0 -5 5 -7 10 -4 5 3 10 8 10 11 0 2 -4 4 -10 4 -5 0 -10 -5
-10 -11z"/>
<path d="M0 1231 c0 -25 6 -27 13 -6 4 8 2 17 -3 20 -6 4 -10 -3 -10 -14z"/>
<path d="M3850 1190 c-9 -6 -10 -10 -3 -10 6 0 15 5 18 10 8 12 4 12 -15 0z"/>
<path d="M3833 1130 c0 -21 3 -37 7 -35 4 3 6 16 5 30 -2 14 1 25 6 25 6 0 7
5 4 10 -13 21 -22 9 -22 -30z"/>
<path d="M1659 1103 c-13 -16 -12 -17 4 -4 16 13 21 21 13 21 -2 0 -10 -8 -17
-17z"/>
<path d="M3465 1050 c3 -6 -5 -10 -19 -10 -13 0 -32 -3 -42 -7 -13 -5 -15 -3
-9 7 6 10 4 11 -6 4 -16 -10 -29 -12 -82 -16 -21 -1 -36 -6 -34 -12 3 -6 -11
-12 -29 -13 -25 -2 -34 1 -34 13 0 8 -4 12 -10 9 -6 -4 -9 -54 -9 -123 1 -81
4 -105 9 -77 4 22 8 36 9 30 1 -5 8 4 16 20 12 24 14 25 8 5 -5 -22 -4 -23 11
-11 12 10 16 10 16 1 0 -8 9 -10 25 -6 16 4 31 1 39 -7 10 -10 37 -13 92 -11
44 2 111 4 149 4 84 2 145 24 140 50 -3 14 2 18 17 15 16 -4 18 -2 8 10 -7 8
-10 22 -6 30 3 8 1 15 -4 15 -6 0 -10 9 -10 21 0 11 -7 27 -15 35 -8 9 -15 11
-15 6 0 -6 -9 -8 -20 -5 -11 3 -18 8 -15 12 6 10 -87 8 -102 -2 -8 -5 -13 -3
-13 3 0 6 -4 9 -9 6 -5 -4 -21 -2 -36 4 -17 7 -24 7 -20 0z"/>
<path d="M1492 823 c-34 -33 -34 -47 0 -16 17 15 18 15 18 -3 1 -18 1 -18 11
-1 6 10 9 25 7 35 -2 14 -9 11 -36 -15z"/>
<path d="M748 815 c2 -15 11 -25 21 -24 10 0 11 2 4 6 -7 2 -13 13 -13 24 0
10 -4 19 -9 19 -4 0 -6 -11 -3 -25z"/>
<path d="M1275 830 c-3 -5 -1 -10 4 -10 6 0 11 5 11 10 0 6 -2 10 -4 10 -3 0
-8 -4 -11 -10z"/>
<path d="M1142 799 l-13 -34 -14 30 c-7 17 -14 24 -14 18 -1 -7 -13 -16 -27
-19 -18 -5 -22 -9 -13 -14 7 -5 18 -6 26 -3 9 4 16 -3 20 -16 7 -26 15 -26 37
-2 10 11 16 31 14 46 l-3 28 -13 -34z"/>
<path d="M680 809 c0 -11 44 -19 53 -10 5 5 -5 11 -22 13 -17 3 -31 1 -31 -3z"/>
<path d="M1605 747 c-55 -22 -102 -42 -104 -44 -3 -2 3 -11 14 -21 17 -16 18
-16 12 0 -4 10 -3 17 1 16 4 -1 17 3 29 10 20 11 22 10 16 -5 -5 -15 -3 -15
10 2 9 11 17 15 17 8 0 -16 20 -17 20 -2 0 20 31 41 63 44 47 4 47 4 47 18 0
20 -16 17 -125 -26z"/>
<path d="M760 761 c0 -11 3 -22 8 -24 4 -3 7 6 7 19 0 13 -3 24 -7 24 -5 0 -8
-9 -8 -19z"/>
<path d="M948 773 c7 -3 16 -2 19 1 4 3 -2 6 -13 5 -11 0 -14 -3 -6 -6z"/>
<path d="M1050 750 c0 -5 9 -10 21 -10 11 0 17 5 14 10 -3 6 -13 10 -21 10 -8
0 -14 -4 -14 -10z"/>
<path d="M606 735 c4 -8 10 -15 14 -15 5 0 11 -8 14 -18 5 -15 17 -18 75 -18
38 1 73 -2 77 -6 10 -11 -17 -40 -33 -34 -7 3 -13 1 -13 -4 0 -6 5 -10 12 -10
24 0 -3 -13 -39 -19 -37 -6 -38 -7 -35 -46 2 -22 8 -45 14 -52 5 -7 7 -17 3
-23 -4 -6 -2 -16 3 -23 5 -7 12 -48 15 -91 6 -85 15 -100 63 -110 25 -6 36 -2
58 21 21 21 31 25 44 17 21 -14 42 -7 42 13 0 10 6 13 16 9 66 -25 92 -13 75
34 -6 18 -11 42 -11 54 1 21 1 21 12 1 16 -28 30 -36 45 -23 9 7 10 16 3 28
-14 26 -13 29 10 23 27 -7 36 20 16 49 -9 12 -16 34 -16 48 0 41 -11 47 -102
55 -49 4 -88 11 -88 16 0 4 8 6 18 3 15 -5 15 -4 -1 6 -12 8 -35 10 -62 6 -43
-7 -72 7 -35 17 26 7 28 49 3 45 -12 -2 -17 3 -16 16 1 12 -2 15 -9 8 -6 -6
-22 -6 -46 0 -20 5 -52 12 -70 15 -18 3 -35 9 -38 14 -9 15 -24 10 -18 -6z
m211 -131 c-3 -3 -12 -4 -19 -1 -8 3 -5 6 6 6 11 1 17 -2 13 -5z"/>
<path d="M848 706 c-28 -21 -21 -26 12 -10 17 9 30 17 30 20 0 9 -26 3 -42
-10z"/>
<path d="M905 710 c-8 -13 5 -13 25 0 13 8 13 10 -2 10 -9 0 -20 -4 -23 -10z"/>
<path d="M1498 634 c3 -18 8 -22 15 -15 8 8 17 6 30 -7 19 -16 19 -16 6 6 -8
12 -19 22 -26 22 -7 0 -13 5 -13 10 0 6 -4 10 -9 10 -4 0 -6 -12 -3 -26z"/>
<path d="M1120 620 c0 -5 15 -10 33 -9 27 0 29 2 12 9 -28 12 -45 12 -45 0z"/>
<path d="M1218 623 c7 -3 16 -2 19 1 4 3 -2 6 -13 5 -11 0 -14 -3 -6 -6z"/>
<path d="M638 613 c7 -3 16 -2 19 1 4 3 -2 6 -13 5 -11 0 -14 -3 -6 -6z"/>
</g>
</svg>
